<?xml version="1.0" encoding="UTF-8"?>
<svg width="371px" height="105px" viewBox="0 0 371 105" version="1.1" xmlns="http://www.w3.org/2000/svg" xmlns:xlink="http://www.w3.org/1999/xlink">
    <!-- Generator: Sketch 51.3 (57544) - http://www.bohemiancoding.com/sketch -->
    <title>cushman-logo</title>
    <desc>Created with Sketch.</desc>
    <defs></defs>
    <g id="cushman-logo" stroke="none" stroke-width="1" fill="none" fill-rule="evenodd">
        <g id="Group" transform="translate(0.000000, 13.000000)" fill="#8C8C8C" fill-rule="nonzero">
            <polygon id="path6590" points="54.2987013 0 53.7790812 76.3841474 76.412838 76.5371643 76.8145075 17.1283345"></polygon>
            <polygon id="path6592" points="45.2866407 6.63711009 44.8180263 76.3203903 49.5232974 76.3522688 50.0206025 3.09540533"></polygon>
            <polygon id="path6594" points="35.8537835 76.2630089 40.5622424 76.2948875 41.0085419 9.96204084 36.2809558 13.277408"></polygon>
            <polygon id="path6596" points="26.8927285 76.1992519 31.5820603 76.218379 31.9837298 16.5863995 27.2561437 20.1281043"></polygon>
            <polygon id="path6598" points="80.9587165 34.3523047 80.6718097 76.565855 103.305567 76.7188719 103.474523 51.4806392"></polygon>
            <polygon id="path6600" points="18.1771382 40.6291873 17.9348614 76.1418705 22.6401325 76.173749 22.9047243 37.3106323"></polygon>
            <polygon id="path6602" points="8.96105497 76.0813013 13.669514 76.1131798 13.8894758 43.9509302 9.15870186 47.2694853"></polygon>
            <polygon id="path6604" points="0 76.0175442 4.70527113 76.0494228 4.88060305 50.5912282 0.149829094 54.1329329"></polygon>
            <path d="M161.796295,43.1667184 C158.768649,43.4378755 155.780454,42.3273763 153.664693,40.1447823 C151.548932,37.9621883 150.531871,34.9409121 150.897025,31.9231606 L150.995848,17.6288275 L156.587343,17.6702696 L156.494895,31.9614149 C156.469392,35.9812976 158.468176,38.228734 162.057699,38.2542368 C165.41132,38.2765518 167.448358,36.057806 167.477049,32.0347355 L167.575872,17.7404023 L173.17693,17.7818444 L173.084482,31.8530279 C173.027101,39.6664557 168.519477,43.2113483 161.796295,43.1667184 Z" id="path6606"></path>
            <path d="M189.581622,43.3548017 C185.692555,43.352081 181.94579,41.8915935 179.080834,39.2615984 L182.243184,35.4871803 C184.352718,37.3306045 187.042263,38.3752852 189.843026,38.4391323 C192.074523,38.4391323 193.435736,37.5688484 193.442112,36.2267623 L193.442112,36.0036125 C193.442112,34.6647143 192.562265,33.9888894 188.312856,32.8444502 C183.390811,31.4672976 180.024438,29.8829347 180.072256,24.9672652 C180.104135,20.2779334 183.709597,17.399302 188.864355,17.4343684 C192.272998,17.3549924 195.599791,18.48425 198.25577,20.6222215 L195.313382,24.842939 C193.491836,23.3127797 191.212842,22.4323614 188.835664,22.3404743 C186.817753,22.3404743 185.689253,23.2171339 185.682878,24.5719714 C185.682878,26.1340194 186.785875,26.8034686 191.035283,27.9574714 C196.186853,29.3346239 199.084612,31.1453245 199.052733,35.6083188 C199.020855,40.7471379 195.189055,43.3994317 189.587998,43.3643653 L189.581622,43.3548017 Z" id="path6608"></path>
            <polygon id="path6610" points="222.298558 43.348426 222.368691 33.0739756 212.059174 33.0070307 211.989041 43.2814811 206.397547 43.240039 206.566503 18.0018063 212.164373 18.0432484 212.097428 27.8713994 222.403757 27.9383443 222.470702 18.1101933 228.078136 18.1516354 227.909179 43.3898681"></polygon>
            <polygon id="path6612" points="318.664168 44.0019359 306.897803 28.0626706 306.789416 43.9222396 301.411508 43.8871732 301.580464 18.6489404 306.732034 18.6840068 318.507964 34.8464219 318.616351 18.7637032 323.994259 18.7987695 323.818927 44.0370023"></polygon>
            <polygon id="path6614" points="209.74798 77.4393267 201.979183 66.6643833 199.04317 69.7725401 198.995352 77.3660061 193.387918 77.324564 193.56325 52.0895191 199.164308 52.1245855 199.0878 63.2820712 209.473825 52.1851547 216.187444 52.2297847 205.820545 62.8931532 216.483914 77.4839567"></polygon>
            <polygon id="path6616" points="222.74167 77.5126473 222.910626 52.2744146 241.734898 52.3987409 241.70302 57.3112224 228.253467 57.2379018 228.221589 62.376721 240.099529 62.4564173 240.067651 67.3688989 228.183335 67.2892025 228.148268 72.6511714 241.82097 72.7436191 241.789092 77.6561007"></polygon>
            <polygon id="path6618" points="276.523939 77.888814 281.901847 77.9238804 282.070803 52.6888355 276.692895 52.6537691"></polygon>
            <polygon id="path6620" points="290.19664 77.9812617 290.365597 52.743029 309.189869 52.873731 309.15799 57.7862126 295.934776 57.6969527 295.89971 62.8357718 307.551313 62.9122803 307.503495 67.8247619 295.858267 67.7450655 295.823201 73.1070344 309.260002 73.1994821 309.228123 78.1119637"></polygon>
            <polygon id="path6622" points="317.535668 78.1661572 317.704625 52.9311123 323.302495 52.9661787 323.165417 73.2919299 335.72237 73.3780019 335.687304 78.2904835"></polygon>
            <path d="M352.270515,78.4020583 L342.407298,78.3351134 L342.576254,53.0968807 L352.439472,53.1638256 C355.909982,52.9563642 359.312128,54.1912108 361.841596,56.576431 C364.371065,58.9616513 365.803322,62.2855167 365.799764,65.7622209 L365.799764,65.9853706 C365.798812,69.4776746 364.334677,72.8098233 361.762952,75.1725382 C359.191228,77.5352531 355.747203,78.7123682 352.267328,78.4179976 L352.270515,78.4020583 Z M359.975556,65.9471164 C360.080332,63.9016575 359.319136,61.9065942 357.878484,60.4507776 C356.437833,58.9949609 354.450849,58.2129165 352.404405,58.296269 L348.148621,58.2707662 L348.04661,73.4545104 L352.302394,73.4863889 C354.345866,73.5970147 356.341618,72.8429428 357.801366,71.408666 C359.261114,69.9743892 360.050197,67.9922187 359.975556,65.9471164 Z" id="path6624"></path>
            <path d="M134.492333,38.0661535 C132.400834,38.1045073 130.384841,37.2848172 128.91353,35.7978471 C127.442219,34.3108769 126.643916,32.2863197 126.704408,30.1953443 L126.704408,29.9721945 C126.704356,26.7106959 128.738225,23.7952212 131.79914,22.6690892 C134.860055,21.5429573 138.298468,22.4451413 140.412176,24.929011 L144.027202,20.7114814 C141.379608,18.2104405 137.827387,16.8959114 134.189487,17.0709532 C130.656988,16.9319627 127.224051,18.2587757 124.703226,20.7373452 C122.182402,23.2159148 120.797752,26.6259346 120.877013,30.1602779 C121.156199,35.6045605 124.67931,40.3479231 129.810724,42.188236 C134.942138,44.0285488 140.676799,42.6053623 144.352363,38.5793978 L140.571569,34.9803117 C139.067339,36.8139416 136.863481,37.9332151 134.495521,38.0661535 L134.492333,38.0661535 Z" id="path6626"></path>
            <polygon id="path6628" points="256.309762 18.3429066 262.366683 18.3843486 262.197727 43.6225814 256.819819 43.5811393 256.931394 27.0584968 249.688592 37.7314289 249.46863 37.7314289 242.359717 26.9501098 242.248142 43.4727523 237.096572 43.4408738 237.265528 18.202641 243.086548 18.2440831 249.742785 28.7863132"></polygon>
            <path d="M279.169857,18.4927356 L268.235521,43.6767749 L274.069292,43.718217 L276.348607,37.9227001 L287.101235,37.9928329 L289.307229,43.8170404 L295.131437,43.8584825 L284.547765,18.5437413 L279.169857,18.4927356 Z M278.398396,33.0070307 L281.812587,24.9895802 L285.121578,33.0516606 L278.398396,33.0070307 Z" id="path6630"></path>
            <path d="M171.369417,51.93969 L160.447833,77.0950386 L166.048891,77.1364807 L168.551355,71.5704892 L179.090397,71.640622 L181.513166,77.238492 L187.114224,77.2799341 L176.530551,51.9683807 L171.369417,51.93969 Z M170.377995,66.6739469 L173.792186,58.4365346 L177.101177,66.7249526 L170.377995,66.6739469 Z" id="path6632"></path>
            <polygon id="path6634" points="255.375721 57.645947 255.340655 63.0079159 267.215408 63.0876122 267.180341 68.2264314 255.305589 68.146735 255.241832 77.7517363 249.634398 77.7102942 249.80973 52.4752493 269.077114 52.6059513 269.045235 57.7447705"></polygon>
            <polygon id="path6636" points="154.566244 51.8121759 148.624086 69.4186884 142.921017 51.7388553 137.536733 51.7037889 131.591387 69.3103014 125.888318 51.6240926 119.831397 51.5826505 128.84027 76.8846403 134.447703 76.9197067 140.173087 59.7818086 145.866593 76.9962151 151.244501 77.0312815 160.604038 51.8472423"></polygon>
            <path d="M359.264665,38.0247114 L362.187926,34.6934049 L358.850244,31.0975067 L356.137381,33.9825137 L353.022849,30.15709 C355.062454,29.0362657 356.357369,26.9205116 356.427476,24.5942864 C356.389623,21.0660387 353.498727,18.2365148 349.970479,18.2743677 C346.442232,18.3122207 343.612708,21.2031164 343.650561,24.7313641 C343.922693,26.4791407 344.690522,28.1121593 345.862931,29.4366352 C342.830211,30.5951572 340.842169,33.5224909 340.883504,36.7686973 C341.125395,41.1547061 344.731616,44.5991013 349.124104,44.6395065 C351.799608,44.5364428 354.316427,43.3431138 356.089563,41.3368907 L358.32106,44.2537763 L364.817905,44.2984062 L359.264665,38.0247114 Z M353.207744,37.7569317 C352.258775,39.0638453 350.771829,39.8740551 349.159171,39.9629261 C348.26382,39.9752932 347.401966,39.6228691 346.771811,38.9867005 C346.141655,38.3505319 345.797432,37.4853709 345.818301,36.5901775 C345.604715,35.4744289 346.506877,33.9155688 348.980651,32.8157595 L353.207744,37.7569317 Z M350.137842,27.2370166 C349.355009,26.5697842 348.746632,25.7217756 348.365395,24.7664305 C348.318343,23.7191754 349.123034,22.8291823 350.16972,22.7708345 C350.682089,22.7812297 351.166526,23.0063817 351.504808,23.3913438 C351.84309,23.7763059 352.004099,24.2856668 351.948542,24.7951212 C351.948542,25.9108697 350.82323,26.8002807 350.147405,27.2433923 L350.137842,27.2370166 Z" id="path6638"></path>
        </g>
    </g>
</svg>