<?xml version="1.0" encoding="UTF-8"?>
<svg width="401px" height="105px" viewBox="0 0 401 105" version="1.1" xmlns="http://www.w3.org/2000/svg" xmlns:xlink="http://www.w3.org/1999/xlink">
    <!-- Generator: Sketch 51.3 (57544) - http://www.bohemiancoding.com/sketch -->
    <title>dolby-logo</title>
    <desc>Created with Sketch.</desc>
    <defs></defs>
    <g id="dolby-logo" stroke="none" stroke-width="1" fill="none" fill-rule="evenodd">
        <g id="Group" transform="translate(0.000000, 15.000000)" fill="#8C8C8C" fill-rule="nonzero">
            <path d="M397.922903,60.4799145 C397.922903,63.2091525 395.957852,65.0650344 393.446953,65.0650344 C390.936054,65.0650344 388.971002,63.099983 388.971002,60.4799145 C388.971002,57.859846 390.936054,55.8947946 393.446953,55.8947946 C395.957852,55.8947946 397.922903,57.859846 397.922903,60.4799145 Z M387.879307,60.4799145 C387.879307,63.6458306 390.390206,65.9383905 393.446953,65.9383905 C396.39453,65.9383905 399.014598,63.6458306 399.014598,60.4799145 C399.014598,57.3139984 396.503699,55.0214384 393.446953,55.0214384 C390.499376,55.0214384 387.879307,57.3139984 387.879307,60.4799145 Z M392.355257,58.1873545 L393.665292,58.1873545 C394.756987,58.1873545 395.084496,58.5148631 395.084496,59.1698802 C395.084496,59.8248974 394.647817,60.1524059 393.556122,60.1524059 L392.464427,60.1524059 L392.464427,58.1873545 L392.355257,58.1873545 Z M392.355257,60.9165926 L393.446953,60.9165926 L395.084496,63.6458306 L396.176191,63.6458306 L394.320309,60.807423 C395.302835,60.6982535 395.957852,60.1524059 395.957852,59.0607107 C395.957852,57.859846 395.193665,57.2048289 393.665292,57.2048289 L391.263562,57.2048289 L391.263562,63.5366611 L392.246088,63.5366611 L392.355257,60.9165926 Z" id="XMLID_7_"></path>
            <path d="M386.460103,8.07854453 L372.049727,34.2792295 L358.076028,8.07854453 L344.975686,8.07854453 C347.377415,12.5544949 364.51703,44.650334 364.51703,44.650334 C364.51703,44.650334 364.51703,62.9908135 364.51703,65.829221 L378.599898,65.829221 C378.599898,62.9908135 378.599898,44.650334 378.599898,44.650334 C378.599898,44.650334 396.39453,12.4453254 398.905429,7.96937501 L386.460103,8.07854453 Z" id="XMLID_8_"></path>
            <path d="M328.272749,35.3709247 C338.534684,34.388399 340.718074,29.3666011 340.718074,22.1614127 C340.718074,15.8295805 337.988836,12.5544949 335.041259,10.698613 C332.53036,9.17023974 329.582783,8.07854453 323.46929,8.07854453 L296.395249,8.07854453 L296.395249,65.9383905 L323.796798,65.9383905 C332.202852,65.9383905 335.696276,64.3008477 337.333819,63.2091525 C340.172227,61.3532706 343.774821,57.2048289 343.774821,50.6546576 C343.88399,42.9036216 341.154752,35.0434162 328.272749,35.3709247 M321.2859,57.5323374 L309.495591,57.5323374 L309.495591,57.4231679 L309.495591,16.3754281 L322.377595,16.3754281 C326.744376,16.3754281 329.473614,19.8688528 329.473614,24.5631422 C329.473614,31.8775001 325.980189,31.9866696 315.936593,32.4233477 L315.936593,39.0826884 C324.888494,39.0826884 332.093682,38.5368408 332.093682,47.8162501 C331.984513,52.4013699 329.036935,57.5323374 321.2859,57.5323374" id="XMLID_11_"></path>
            <polygon id="XMLID_12_" points="265.172766 8.07854453 252.181593 8.07854453 252.181593 65.9383905 289.29923 65.9383905 289.29923 56.3314727 265.172766 56.3314727"></polygon>
            <path d="M229.474333,45.7420292 C229.474333,56.0039641 225.871738,58.2965241 215.828142,58.2965241 C205.784547,58.2965241 202.181952,56.0039641 202.181952,45.7420292 L202.181952,28.3840754 C202.181952,18.3404795 205.784547,16.2662586 215.828142,16.2662586 C225.871738,16.2662586 229.474333,18.449649 229.474333,28.3840754 L229.474333,45.7420292 Z M235.260317,11.3536302 C231.330214,8.62439214 224.561704,7.09601885 215.828142,7.09601885 C207.31292,7.09601885 201.090257,8.29688358 196.395968,11.3536302 C191.483339,14.5195463 189.08161,19.8688528 189.08161,28.2749059 L189.08161,46.5062158 C189.08161,54.9122689 191.483339,60.589084 196.286798,63.4274915 C200.216901,66.1567296 206.548733,67.4667638 215.828142,67.4667638 C224.998382,67.4667638 231.439384,66.1567296 235.260317,63.5366611 C240.063776,60.4799145 242.574675,54.6939299 242.574675,46.5062158 L242.574675,28.2749059 C242.574675,20.3055309 240.063776,14.6287158 235.260317,11.3536302 Z" id="XMLID_15_"></path>
            <path d="M167.793553,44.3228254 C167.793553,54.4755908 162.335077,56.9864898 157.859127,56.9864898 L141.811207,56.9864898 L141.811207,16.5937672 L157.859127,16.5937672 C162.444247,16.5937672 167.793553,19.1046661 167.793553,28.6024144 L167.793553,44.3228254 Z M157.749957,8.07854453 L128.820034,8.07854453 L128.820034,65.9383905 L159.824178,65.9383905 C175.107911,65.9383905 180.784726,59.7157278 180.784726,42.9036216 L180.784726,30.2399572 C180.675557,14.3012072 174.234555,8.07854453 157.749957,8.07854453 Z" id="XMLID_18_"></path>
            <path d="M0.545847604,74.2352741 L107.422808,74.2352741 L107.422808,0 L0.545847604,0 L0.545847604,74.2352741 Z M25.3273288,64.6283563 L13.209512,64.6283563 L13.209512,9.60691782 L25.4364983,9.60691782 C38.1001627,9.60691782 48.6896062,22.1614127 48.6896062,37.0084675 C48.5804367,52.2922004 37.9909932,64.6283563 25.3273288,64.6283563 Z M94.8683135,64.6283563 L82.6413272,64.6283563 C69.9776628,64.6283563 59.3882193,52.2922004 59.3882193,37.0084675 C59.3882193,22.1614127 69.9776628,9.60691782 82.6413272,9.60691782 L94.8683135,9.60691782 L94.8683135,64.6283563 Z" id="XMLID_22_"></path>
        </g>
    </g>
</svg>