<?xml version="1.0" encoding="UTF-8"?>
<svg width="363px" height="105px" viewBox="0 0 363 105" version="1.1" xmlns="http://www.w3.org/2000/svg" xmlns:xlink="http://www.w3.org/1999/xlink">
    <!-- Generator: Sketch 51.3 (57544) - http://www.bohemiancoding.com/sketch -->
    <title>gettyimages-logo</title>
    <desc>Created with Sketch.</desc>
    <defs></defs>
    <g id="gettyimages-logo" stroke="none" stroke-width="1" fill="none" fill-rule="evenodd">
        <g id="Group" transform="translate(0.000000, 19.000000)" fill="#8C8C8C" fill-rule="nonzero">
            <path d="M157.038922,6.70885525 L161.507086,6.70885525 L161.507086,0.264780486 L157.038922,0.264780486 L157.038922,6.70885525 Z M157.038922,53.1282855 L161.507086,53.1282855 L161.507086,15.0535016 L157.038922,15.0535016 L157.038922,53.1282855 Z" id="Fill-1"></path>
            <path d="M171.785652,53.1290979 L171.785652,15.0543138 L176.253817,15.0543138 L176.253817,20.838874 C180.20205,16.7388375 183.105544,14.3217003 189.138378,14.3217003 C193.457063,14.3217003 197.405295,17.0312331 198.521523,21.2790918 C202.021314,17.2521543 205.745327,14.3217003 211.331345,14.3217003 C218.108332,14.3217003 221.535007,17.9831433 221.535007,24.6465149 L221.535007,53.1290979 L217.066843,53.1290979 L217.066843,24.2079214 C217.066843,19.9600626 214.68328,17.8369456 210.362972,17.8369456 C206.93792,17.8369456 201.275538,21.4252896 198.8936,25.0851083 L198.8936,53.1290979 L194.425436,53.1290979 L194.425436,24.2079214 C194.425436,19.9600626 192.041872,17.8369456 187.723189,17.8369456 C184.296513,17.8369456 178.63738,21.4252896 176.253817,25.0851083 L176.253817,53.1290979 L171.785652,53.1290979 Z" id="Fill-2"></path>
            <path d="M252.372979,31.6024444 C234.648177,35.4100852 232.264614,38.9984293 232.264614,43.8294549 C232.264614,48.0042147 235.168108,50.3466285 239.191082,50.3466285 C243.36191,50.3466285 248.499487,47.9311158 252.372979,44.0503761 L252.372979,31.6024444 Z M253.117132,53.1292602 L252.520835,48.515907 C247.90319,52.1042512 244.403399,53.8618737 238.446929,53.8618737 C232.414095,53.8618737 227.79645,50.2004308 227.79645,43.9041782 C227.79645,33.5062648 236.433817,31.6024444 252.597201,28.0871991 L252.597201,25.4523897 C252.597201,20.4004429 250.363119,17.837108 243.733987,17.837108 C239.116341,17.837108 235.31759,20.327344 232.487211,24.7197762 L229.508976,22.9621535 C232.859286,16.8120989 237.626412,14.3218628 243.881841,14.3218628 C252.670315,14.3218628 256.841145,17.837108 256.841145,26.2564777 L256.841145,46.1734931 C256.841145,48.0773136 256.990624,50.5659253 257.435817,53.1292602 L253.117132,53.1292602 Z" id="Fill-4"></path>
            <path d="M279.113725,37.0942841 C285.369156,37.0942841 289.166283,34.1654545 289.166283,27.575182 C289.166283,20.9134348 285.369156,17.8367831 279.113725,17.8367831 C272.85667,17.8367831 269.059543,21.6444239 269.059543,27.575182 C269.059543,34.1654545 273.675563,37.0942841 279.113725,37.0942841 Z M267.197537,56.7903785 C267.197537,60.5249203 270.919924,63.086631 278.964246,63.086631 C288.646352,63.086631 292.81718,60.5249203 292.81718,56.5710817 C292.81718,53.4213309 290.284137,50.3463036 278.666908,50.3463036 C269.87681,50.3463036 267.197537,53.4960544 267.197537,56.7903785 Z M297.062749,17.5443874 C295.051262,17.5443874 292.445104,17.7636842 290.880434,19.3020101 C292.59296,21.3520282 293.636072,23.6213432 293.636072,27.2827863 C293.636072,36.6540661 286.859085,40.6095292 278.666908,40.6095292 C276.208606,40.6095292 274.346601,40.0962125 272.409854,39.4366979 C269.951551,40.3155092 268.835323,41.7060129 268.835323,43.0981408 C268.835323,45.2943569 270.325252,46.392465 280.826251,46.392465 C292.445104,46.392465 297.285344,50.0539081 297.285344,56.2770617 C297.285344,61.8423252 292.965035,66.6018761 279.633657,66.6018761 C266.302278,66.6018761 262.727748,62.1347207 262.727748,57.5960909 C262.727748,54.3001424 264.068196,51.5175105 269.504735,49.5422158 L269.504735,49.3943935 C266.67598,48.8096023 264.367157,47.6383953 264.367157,44.4155457 C264.367157,41.1943204 267.347017,38.5578865 270.175772,37.9730953 C266.67598,35.6290571 264.589754,31.9692384 264.589754,28.0153998 C264.589754,19.6675046 270.549472,14.3215379 279.932619,14.3215379 C283.655005,14.3215379 286.485384,15.3481714 288.943688,16.9579718 C291.179395,14.7617557 294.008148,13.5905488 297.062749,13.5905488 L297.062749,17.5443874 Z" id="Fill-6"></path>
            <path d="M326.259522,30.723633 C325.36589,22.8890547 321.866099,17.9102069 315.087486,17.837108 C307.194271,17.764009 303.842335,25.6716863 303.767594,30.723633 L326.259522,30.723633 Z M303.767594,34.2388783 C303.767594,42.8775446 307.416866,50.3466285 316.20534,50.3466285 C321.196686,50.3466285 323.653364,48.6621049 327.525231,42.658248 L331.174504,44.5620684 C327.003675,51.2985388 323.204922,53.8618737 315.833263,53.8618737 C305.70434,53.8618737 299.29943,47.490898 299.29943,34.0926806 C299.29943,22.3026389 305.40538,14.3218628 315.236967,14.3218628 C325.737966,14.3218628 330.729311,22.4504612 330.729311,34.2388783 L303.767594,34.2388783 Z" id="Fill-9"></path>
            <path d="M337.136335,43.9036909 C340.785607,49.0287364 344.064426,50.3461413 349.127264,50.3461413 C354.042245,50.3461413 357.766256,47.1980149 357.766256,43.0979785 C357.766256,32.042175 334.976992,38.2653285 334.976992,24.7192888 C334.976992,17.5442249 340.710867,14.3229998 347.265258,14.3229998 C353.744909,14.3229998 357.840997,16.8116115 360.596635,21.205668 L357.16996,23.5480819 C354.565426,20.0344611 351.733422,17.8366206 347.117402,17.8366206 C342.797092,17.8366206 339.445158,19.886639 339.445158,24.4999922 C339.445158,33.7981731 362.23442,28.307633 362.23442,43.0979785 C362.23442,49.9075479 355.831135,53.8613864 348.829928,53.8613864 C342.870208,53.8613864 337.508412,51.5173482 333.859139,46.1730059 L337.136335,43.9036909 Z" id="Fill-11"></path>
            <path d="M16.0210506,21.6900701 C12.2466702,21.6900701 9.61289034,24.3963542 9.61289034,27.814134 C9.61289034,31.2302897 12.2466702,33.9349492 16.0210506,33.9349492 C19.368112,33.9349492 22.0733826,31.2302897 22.0733826,27.814134 C22.0733826,24.3963542 19.368112,21.6900701 16.0210506,21.6900701 Z M8.11808621,56.4299195 C8.11808621,59.277528 10.5373942,60.5591956 17.9431738,60.5591956 C23.6380526,60.5591956 25.5618004,57.711587 25.5618004,56.4299195 C25.5618004,54.7210295 22.9280206,52.159319 14.3832652,52.159319 C9.54139971,52.159319 8.11808621,54.8639785 8.11808621,56.4299195 Z M33.8920838,21.1198986 C31.8286043,21.1198986 29.549028,21.1198986 28.1955803,21.9759682 C29.3345561,23.5419092 30.1908188,25.6763971 30.1908188,28.5240057 C30.1908188,35.5008902 25.4903098,40.4829869 16.2338977,40.4829869 C12.3896515,40.4829869 9.32692781,40.6259359 9.32692781,42.7620484 C9.32692781,48.741539 33.6792368,40.6259359 33.6792368,55.4325257 C33.6792368,60.7021446 28.3385616,66.3957373 16.5198603,66.3957373 C6.55016668,66.3957373 0.000649914837,63.4068041 0.000649914837,57.5686382 C0.000649914837,52.9422895 3.4890678,50.7347025 6.69314794,50.7347025 L6.69314794,50.593378 C4.98387192,49.5261338 1.2111163,48.59859 1.2111163,44.6122629 C1.2111163,41.0531584 5.33970029,38.3484989 6.97911048,37.8498019 C3.91638681,35.3579414 1.49545404,32.5103329 1.49545404,28.0253088 C1.49545404,21.5487457 6.47867605,15.1420325 16.0925413,15.1420325 C19.2251307,15.1420325 22.9280206,16.4237 25.205972,18.4152391 C26.9152481,16.137802 29.6920093,14.9990835 33.8920838,15.1420325 L33.8920838,21.1198986 Z" id="Fill-13"></path>
            <path d="M57.9007503,29.8058357 C57.7593938,24.6807901 55.0524986,21.6902326 50.7809332,21.6902326 C46.5077431,21.6902326 43.8024726,24.6807901 43.6594914,29.8058357 L57.9007503,29.8058357 Z M43.6594914,35.7869507 C43.8024726,43.4737069 47.2210247,46.4642644 51.3512335,46.4642644 C55.4814423,46.4642644 57.4019406,44.6124254 59.6100263,42.0507147 L66.0181866,46.0370419 C62.6012593,51.3034119 57.6164125,53.5824735 50.4949707,53.5824735 C40.8827303,53.5824735 34.8320232,46.1085163 34.8320232,34.3623342 C34.8320232,22.6161521 40.8827303,15.1421949 50.9239145,15.1421949 C60.6076455,15.0707204 66.0181866,23.257798 66.0181866,32.1547472 L66.0181866,35.7869507 L43.6594914,35.7869507 Z" id="Fill-15"></path>
            <path d="M120.113361,58.8503055 C121.466808,59.1362036 122.534293,59.1362036 123.81625,59.1362036 C126.877349,59.1362036 128.586625,58.2801342 129.65411,56.2171205 C130.508748,54.436756 131.079049,53.369512 131.079049,51.873421 C131.079049,50.5219035 130.367392,48.9559625 129.940073,47.4598715 L120.04187,15.8535285 L128.944078,15.8535285 L135.066276,38.6343968 L135.209257,38.6343968 L141.544302,15.8535285 L150.37502,15.8535285 L138.697675,52.9422895 C134.780314,63.5497531 131.649349,66.3973616 124.386551,66.3973616 C122.248331,66.3973616 121.180846,66.2544128 120.113361,66.1114638 L120.113361,58.8503055 Z" id="Fill-17"></path>
            <path d="M73.2827722,15.9540801 L73.2827722,4.56202157 L82.9941245,4.56202157 L82.9941245,15.9540801 L90.9832028,15.9540801 L90.9832028,23.0739137 L82.9941245,23.0739137 L82.9941245,44.002943 C82.9941245,45.9961066 84.0908558,46.5662779 86.5182877,46.5662779 C88.0065928,46.5662779 89.5728874,46.1390554 90.9832028,45.8531575 L90.9832028,53.1143156 C88.3201767,53.4002136 85.9707345,53.6844871 83.3077085,53.6844871 C76.1017778,53.6844871 73.2827722,50.4096561 73.2827722,45.1416615 L73.2827722,23.0739137 L67.6447609,23.0739137 L67.6447609,15.9540801 L73.2827722,15.9540801 Z" id="Fill-19"></path>
            <path d="M98.6837186,15.9540801 L98.6837186,4.56202157 L108.395071,4.56202157 L108.395071,15.9540801 L116.384149,15.9540801 L116.384149,23.0739137 L108.395071,23.0739137 L108.395071,44.002943 C108.395071,45.9961066 109.491802,46.5662779 111.919234,46.5662779 C113.407539,46.5662779 114.973834,46.1390554 116.384149,45.8531575 L116.384149,53.1143156 C113.721123,53.4002136 111.371681,53.6844871 108.708655,53.6844871 C101.502724,53.6844871 98.6837186,50.4096561 98.6837186,45.1416615 L98.6837186,23.0739137 L93.0457074,23.0739137 L93.0457074,15.9540801 L98.6837186,15.9540801 Z" id="Fill-21"></path>
        </g>
    </g>
</svg>