<?xml version="1.0" encoding="UTF-8"?>
<svg width="299px" height="105px" viewBox="0 0 299 105" version="1.1" xmlns="http://www.w3.org/2000/svg" xmlns:xlink="http://www.w3.org/1999/xlink">
    <!-- Generator: Sketch 51.3 (57544) - http://www.bohemiancoding.com/sketch -->
    <title>guru-logo</title>
    <desc>Created with Sketch.</desc>
    <defs></defs>
    <g id="guru-logo" stroke="none" stroke-width="1" fill="none" fill-rule="evenodd">
        <g id="Group" transform="translate(14.955649, 22.500000)" fill="#8C8C8C" fill-rule="nonzero">
            <path d="M108.016889,59.6747685 L104.27055,59.6747685 C91.8902073,59.6747685 81.8174012,49.6007773 81.8174012,37.2216198 L81.8174012,4.33063105 C81.7954341,3.20573855 82.3829875,2.15676552 83.3536767,1.58788221 C84.3243659,1.01899891 85.5266818,1.01899891 86.497371,1.58788221 C87.4680601,2.15676552 88.0556136,3.20573855 88.0336464,4.33063105 L88.0336464,37.2216198 C88.0336464,46.1744351 95.3165495,53.4585233 104.27055,53.4585233 L108.016889,53.4585233 C116.969705,53.4585233 124.253793,46.1756203 124.253793,37.2216198 L124.253793,4.33063105 C124.253793,2.61438962 125.645082,1.22310105 127.361323,1.22310105 C129.077564,1.22310105 130.468853,2.61438962 130.468853,4.33063105 L130.468853,37.2216198 C130.468853,49.6019625 120.394862,59.6747685 108.015704,59.6747685" id="Shape"></path>
            <path d="M259.916085,59.6747685 L256.169745,59.6747685 C243.789403,59.6747685 233.716597,49.6007773 233.716597,37.2216198 L233.716597,4.33063105 C233.694629,3.20573855 234.282183,2.15676552 235.252872,1.58788221 C236.223561,1.01899891 237.425877,1.01899891 238.396566,1.58788221 C239.367255,2.15676552 239.954809,3.20573855 239.932842,4.33063105 L239.932842,37.2216198 C239.932842,46.1744351 247.215745,53.4585233 256.169745,53.4585233 L259.916085,53.4585233 C268.8689,53.4585233 276.152988,46.1756203 276.152988,37.2216198 L276.152988,4.33063105 C276.131021,3.20573855 276.718575,2.15676552 277.689264,1.58788221 C278.659953,1.01899891 279.862269,1.01899891 280.832958,1.58788221 C281.803647,2.15676552 282.391201,3.20573855 282.369233,4.33063105 L282.369233,37.2216198 C282.369233,49.6019625 272.295242,59.6747685 259.916085,59.6747685" id="Shape"></path>
            <path d="M50.3142529,38.8820506 C50.2765494,39.1924807 50.2203512,39.5003836 50.145958,39.8041171 C49.7560353,41.3448452 48.9856712,42.9863132 47.916643,44.5448189 C47.0242059,45.8485119 45.7288091,47.1522048 43.958157,48.5483415 C42.4692094,49.7193904 40.8434809,50.7051749 39.1167154,51.4840211 C37.3602454,52.2749927 35.5115903,52.8427684 33.6139458,53.1740812 C32.2910063,53.4036856 30.9507691,53.5190729 29.6080528,53.5189673 C16.7109737,53.5165969 6.21624518,42.9033509 6.21624518,29.8664211 C6.21624518,16.8294912 16.7109737,6.21624518 29.6080528,6.21624518 C36.5517493,6.21942155 43.1303906,9.32681124 47.5433127,14.6878792 C48.6387094,16.0100789 50.5985585,16.1939392 51.9207582,15.0985425 C53.2429579,14.0031458 53.4268182,12.0432967 52.3314215,10.721097 C46.6816902,3.91107895 38.3996842,0 29.6080528,0 C13.2822611,0 0,13.3924825 0,29.8664211 C0,46.3403597 13.2822611,59.7328421 29.6080528,59.7328421 C31.3087126,59.7328936 33.0062218,59.5865771 34.6817889,59.2955124 C39.4733703,58.4578492 43.9817321,56.4427296 47.801681,53.4312643 C50.0736623,51.6428346 51.787426,49.8875897 53.0413416,48.0612344 C54.5228109,45.9042151 55.6048761,43.5741602 56.1713899,41.3270676 C56.6419209,39.5339301 56.7227471,37.6607832 56.408425,35.8337794 C54.7290314,36.8340675 51.3714294,38.3973139 50.3154381,38.8820506" id="Shape"></path>
            <path d="M62.508523,23.5506211 C61.9225647,22.9706399 61.1301467,22.6472816 60.3057041,22.6517273 C59.4812616,22.6561729 58.6923768,22.988058 58.1127073,23.5743247 C56.2542557,25.4779598 54.1749321,27.152639 51.9189804,28.5627281 C51.0013503,27.8532113 50.0118491,27.2418735 48.9667084,26.7387431 C47.1797542,25.8871513 45.2909886,25.2681842 43.3466065,24.8969804 C41.3072509,24.4968713 39.2334758,24.2983859 37.15525,24.3043927 C34.0927567,24.3043927 32.1775132,25.4777164 31.1108553,26.4625972 C29.6518098,27.8046993 28.8192445,29.6949403 28.8139853,31.6773691 C28.8139853,35.2044512 31.6121845,38.951976 36.7961418,38.951976 C41.5498805,38.951976 46.0262882,38.0903534 50.1969205,36.3789601 C50.1963655,36.382494 50.1963655,36.3860928 50.1969205,36.3896267 C52.483124,35.3324502 54.1660731,34.5383826 55.7553933,33.4895024 C55.7546821,33.4863819 55.7546821,33.4831414 55.7553933,33.480021 C58.21251,31.891866 60.4864602,30.0368537 62.535782,27.9488072 C63.7430441,26.7279041 63.7324334,24.7596226 62.5120785,23.5518063 M36.7937715,32.7357308 C35.7057804,32.7357308 35.0290453,32.331586 35.0290453,31.6785543 C35.0305876,31.432578 35.13762,31.199092 35.3229688,31.0373744 C35.6785214,30.7067104 36.3303679,30.5253786 37.1528797,30.5253786 C38.8233976,30.5180037 40.4906156,30.6744046 42.1306165,30.9923377 C43.0156762,31.1665271 43.8870549,31.4041758 44.7380025,31.703443 C42.1497461,32.4041676 39.4787236,32.7521979 36.797327,32.7381011" id="Shape"></path>
            <path d="M206.483635,54.0748146 C200.690498,47.1759083 196.865937,41.9374329 193.793962,37.7288749 L193.232189,36.9608812 C195.945055,35.9404452 198.54296,34.5170495 200.688127,32.5378065 C204.300542,29.203908 206.131638,24.8460179 206.131638,19.5850241 C206.131638,14.2647716 204.507948,9.95428851 201.303233,6.76972211 C196.006684,1.50517281 188.342155,1.47791377 188.044676,1.49806175 L161.776447,1.49806175 C160.060206,1.49806175 158.668917,2.88935033 158.668917,4.60559176 L158.668917,55.9236883 C158.64695,57.0485808 159.234504,58.0975538 160.205193,58.6664371 C161.175882,59.2353204 162.378198,59.2353204 163.348887,58.6664371 C164.319576,58.0975538 164.90713,57.0485808 164.885163,55.9236883 L164.885163,7.71549211 L188.069565,7.71549211 C188.148971,7.71549211 193.510705,7.78541746 196.925195,11.1797599 C198.912735,13.153077 199.920134,15.9820908 199.920134,19.5850241 C199.920134,23.0848472 198.796587,25.8249728 196.483125,27.9594738 C194.531141,29.7656811 191.95694,30.9638935 189.279629,31.7520352 C185.344846,26.9639264 182.015688,24.7275004 175.468779,24.7275004 C169.994454,24.7275004 167.126329,28.4347291 167.125144,32.0957361 C167.125144,35.5920036 169.873566,39.3075286 174.974561,39.3715281 C178.048426,39.5485044 181.131972,39.4493423 184.188115,39.0752342 C182.593616,36.919213 180.753708,34.9560084 178.705493,33.2252083 C176.712028,33.2619487 175.387002,33.1683198 175.351447,33.1659495 C175.26967,33.1588384 175.187893,33.1552829 175.103745,33.1552829 C174.016939,33.1552829 173.340204,32.7499529 173.340204,32.0992916 C173.340204,31.3976677 174.169827,30.9437455 175.466409,30.9437455 C177.967129,30.9437455 179.614523,31.2862612 181.273769,32.4844736 L181.282065,32.4844736 C182.986347,33.7158709 184.706037,35.8574829 187.36083,39.4533052 C187.36083,39.4533052 188.265118,40.7001097 188.773559,41.3946226 C191.736497,45.4526633 195.794538,51.0099509 201.7216,58.0712262 C202.833867,59.3534634 204.769042,59.5064565 206.068977,58.4149256 C207.368912,57.3233947 207.552964,55.3909262 206.48245,54.0736294" id="Shape"></path>
        </g>
    </g>
</svg>