<?xml version="1.0" encoding="UTF-8"?>
<svg width="303px" height="105px" viewBox="0 0 303 105" version="1.1" xmlns="http://www.w3.org/2000/svg" xmlns:xlink="http://www.w3.org/1999/xlink">
    <!-- Generator: Sketch 51.3 (57544) - http://www.bohemiancoding.com/sketch -->
    <title>stream-logo</title>
    <desc>Created with Sketch.</desc>
    <defs>
        <polygon id="path-1" points="0.0499417729 0.289662283 27.8159028 0.289662283 27.8159028 40.7857812 0.0499417729 40.7857812"></polygon>
        <polygon id="path-3" points="0.394540006 0.0998835457 300.501312 0.0998835457 300.501312 86.4184114 0.394540006 86.4184114"></polygon>
    </defs>
    <g id="stream-logo" stroke="none" stroke-width="1" fill="none" fill-rule="evenodd">
        <g id="Group" transform="translate(0.000000, 8.500000)">
            <g id="Group-3" transform="translate(0.000000, 46.612321)">
                <mask id="mask-2" fill="white">
                    <use xlink:href="#path-1"></use>
                </mask>
                <g id="Clip-2"></g>
                <path d="M21.9369237,10.6858747 C20.5785075,8.94540388 17.8558485,8.12968826 15.7882591,8.12968826 C13.3943835,8.12968826 10.0732556,9.21508946 10.0732556,12.0992268 C10.0732556,19.1235372 27.8159028,14.6063038 27.8159028,28.1022356 C27.8159028,36.704706 20.9022967,40.7857812 12.9557282,40.7857812 C8.00233674,40.7857812 3.64658178,39.3158283 0,35.9439263 L6.04378688,29.3016705 C7.78509003,31.587339 10.6142915,32.9465876 13.44599,32.9465876 C16.2227526,32.9465876 19.3258014,31.6439396 19.3258014,28.9204483 C19.3258014,21.8453638 1.25270614,25.6550887 1.25270614,12.8092324 C1.25270614,4.58964893 8.38522366,0.289662283 15.9489052,0.289662283 C20.3046601,0.289662283 24.4956072,1.43166416 27.7601344,4.31746626 L21.9369237,10.6858747" id="Fill-1" fill="#8C8C8C" mask="url(#mask-2)"></path>
            </g>
            <polyline id="Fill-4" fill="#8C8C8C" points="58.0714611 55.392085 47.0784445 55.392085 47.0784445 47.8808424 77.5595733 47.8808424 77.5595733 55.392085 66.5632272 55.392085 66.5632272 86.4184114 58.0714611 86.4184114 58.0714611 55.392085"></polyline>
            <path d="M98.342842,47.8808424 L113.256288,47.8808424 C121.150417,47.8808424 127.789344,50.6051661 127.789344,59.5830321 C127.789344,64.9750789 124.902709,69.1626965 119.462385,70.1415553 L129.258464,86.4184114 L119.081163,86.4184114 L111.023891,71.0155363 L106.832943,71.0155363 L106.832943,86.4184114 L98.342842,86.4184114 L98.342842,47.8808424 Z M106.832943,63.8297475 L111.842103,63.8297475 C114.94432,63.8297475 118.970459,63.7232051 118.970459,59.5297609 C118.970459,55.6667648 115.488685,55.0657988 112.383971,55.0657988 L106.832943,55.0657988 L106.832943,63.8297475 Z" id="Fill-5" fill="#8C8C8C"></path>
            <polyline id="Fill-6" fill="#8C8C8C" points="150.423787 47.8808424 176.609091 47.8808424 176.609091 55.7192036 158.918051 55.7192036 158.918051 62.9058247 175.627736 62.9058247 175.627736 70.7408565 158.918051 70.7408565 158.918051 78.5808825 177.58795 78.5808825 177.58795 86.4184114 150.423787 86.4184114 150.423787 47.8808424"></polyline>
            <path d="M213.560177,47.8808424 L220.582822,47.8808424 L237.347443,86.4184114 L227.768611,86.4184114 L224.444154,78.2554286 L209.476604,78.2554286 L206.267013,86.4184114 L196.901266,86.4184114 L213.560177,47.8808424 Z M216.824704,59.091938 L212.145992,71.0696399 L221.563346,71.0696399 L216.824704,59.091938 Z" id="Fill-7" fill="#8C8C8C"></path>
            <g id="Group-11" transform="translate(0.832363, 0.000000)">
                <mask id="mask-4" fill="white">
                    <use xlink:href="#path-3"></use>
                </mask>
                <g id="Clip-9"></g>
                <polyline id="Fill-8" fill="#8C8C8C" mask="url(#mask-4)" points="256.862191 47.8808424 269.707215 47.8808424 278.580203 73.0273574 278.687578 73.0273574 287.618832 47.8808424 300.40559 47.8808424 300.40559 86.4184114 291.917154 86.4184114 291.917154 56.8620379 291.805617 56.8620379 281.68242 86.4184114 275.204972 86.4184114 265.462164 56.8620379 265.353125 56.8620379 265.353125 86.4184114 256.862191 86.4184114 256.862191 47.8808424"></polyline>
                <path d="M300.501312,2.34393387 C300.501312,2.34393387 254.859526,33.8180715 134.257636,6.32096372 C134.257636,6.32096372 58.2171246,-11.6256124 0.394540006,13.4434929 L0.394540006,28.9246101 C58.2171246,3.85633723 134.257636,21.8029133 134.257636,21.8029133 C254.859526,49.2991887 300.501312,17.8258835 300.501312,17.8258835 L300.501312,2.34393387" id="Fill-10" fill="#8C8C8C" mask="url(#mask-4)"></path>
            </g>
        </g>
    </g>
</svg>