<?xml version="1.0" encoding="UTF-8"?>
<svg width="391px" height="105px" viewBox="0 0 391 105" version="1.1" xmlns="http://www.w3.org/2000/svg" xmlns:xlink="http://www.w3.org/1999/xlink">
    <!-- Generator: Sketch 51.3 (57544) - http://www.bohemiancoding.com/sketch -->
    <title>unispace-logo</title>
    <desc>Created with Sketch.</desc>
    <defs>
        <linearGradient x1="0%" y1="50%" x2="100%" y2="50%" id="linearGradient-1">
            <stop stop-color="#FFFFFF" stop-opacity="0" offset="0%"></stop>
            <stop stop-color="#8C8C8C" offset="100%"></stop>
        </linearGradient>
    </defs>
    <g id="unispace-logo" stroke="none" stroke-width="1" fill="none" fill-rule="evenodd">
        <g id="Group" transform="translate(0.000000, 11.000000)" fill-rule="nonzero">
            <g id="So3Y8s.tif" transform="translate(95.301970, 20.293188)" fill="#8C8C8C">
                <g id="Group_3">
                    <path d="M294.918716,23.6051226 C294.774997,24.186388 294.391745,24.2438757 293.839223,24.2438757 C283.714986,24.2215194 273.590748,24.2438757 263.472899,24.2119381 C262.805402,24.2119381 262.661682,24.3205261 262.834145,25.003992 C263.475799,29.1338768 266.241343,32.6223439 270.115931,34.1892623 C274.788249,36.1465365 280.160544,35.3520077 284.0663,32.1260896 C284.829223,31.5049553 285.420696,30.6991009 285.784546,29.7850593 C285.864233,29.506144 286.135515,29.3270981 286.423299,29.3634822 C288.729198,29.3634822 291.031903,29.3858386 293.334608,29.3634822 C293.871161,29.3634822 293.944617,29.4976204 293.800898,30.0022354 C292.757519,33.6153543 290.371642,36.6925412 287.132315,38.6030465 C282.859018,41.2593534 277.813957,42.3948578 272.814663,41.8255561 C267.399875,41.4130587 262.411706,38.7310481 259.081471,34.4415697 C257.051792,31.8249889 255.740609,28.7237255 255.277696,25.4447317 C254.417165,20.9743063 254.938522,16.3478184 256.772378,12.1810225 C259.460566,5.87915805 265.272623,1.46184931 272.064128,0.558909005 C277.279732,-0.454934769 282.680974,0.780264429 286.937495,3.96026952 C290.97644,7.02234258 293.679475,11.5235876 294.484364,16.5277377 C294.562792,17.4327446 294.709052,18.3305866 294.92191,19.2136947 L294.918716,23.6051226 Z M262.74472,17.9202196 L282.37041,17.9202196 C283.788442,17.9202196 285.212862,17.9202196 286.630894,17.9202196 C286.975821,17.9202196 287.157865,17.9202196 287.087602,17.450736 C286.773459,14.2894017 285.177508,11.3949162 282.671763,9.44197978 C280.166017,7.48904336 276.969418,6.64829434 273.827087,7.11571007 C268.095009,7.75772959 263.53036,12.2092489 262.74472,17.9234133 L262.74472,17.9202196 Z" id="Path_119"></path>
                    <path d="M135.48593,37.9706809 L135.48593,38.7946725 C135.48593,45.9870329 135.48593,53.1666183 135.505093,60.3717538 C135.505093,61.0520259 135.313467,61.1765828 134.687489,61.1638077 C132.681804,61.1222887 130.669732,61.13187 128.657659,61.1638077 C128.133882,61.1638077 127.951837,61.0711885 127.951837,60.4931169 C127.964612,40.9706915 127.964612,21.4472015 127.951837,1.92264698 C127.951837,1.40845069 128.076394,1.28389383 128.59059,1.28389383 C130.676119,1.31583149 132.742485,1.32541278 134.843983,1.28389383 C135.431636,1.28389383 135.527449,1.47232601 135.501899,1.98652229 C135.457186,2.74344477 135.501899,3.50356102 135.501899,4.37545906 C139.995547,1.02963709 145.652951,-0.353027806 151.183289,0.542940176 C156.724152,1.26216973 161.690645,4.32276626 164.823862,8.94893161 C170.419851,16.9880932 169.832784,27.8027534 163.399443,35.1889109 C156.143152,43.0535508 144.151621,44.2485879 135.48593,37.9706809 Z M135.48593,21.1235666 C135.48593,23.4965346 135.48593,25.8663087 135.48593,28.2392767 C135.457469,28.5553889 135.539898,28.8715533 135.719075,29.1335311 C138.909242,33.7732874 144.58967,36.0214745 150.091021,34.8216279 C155.526447,33.8703381 159.784417,29.6174745 160.74223,24.1831942 C162.12734,18.8779523 160.133473,13.2647412 155.712049,10.0220369 C152.671054,7.6965128 148.810315,6.71790965 145.028742,7.31407914 C141.247168,7.91024864 137.874757,10.0291665 135.696719,13.1774774 C135.536272,13.4208339 135.462054,13.71096 135.48593,14.001469 C135.489124,16.3776307 135.48593,18.7474049 135.48593,21.1235666 Z" id="Path_120"></path>
                    <path d="M203.714348,37.9227744 C195.376838,44.0811475 183.783319,43.1887855 176.486464,35.8270236 C169.18961,28.4652616 168.399951,16.8642949 174.631917,8.58164855 C181.536592,-0.539949887 194.480489,-2.43903248 203.714348,4.31477752 C203.714348,3.40136051 203.736704,2.63166297 203.714348,1.86196543 C203.691991,1.40845069 203.784611,1.22321228 204.302001,1.22321228 C206.432242,1.25514994 208.562484,1.2487624 210.689532,1.22321228 C211.149434,1.22321228 211.254829,1.36054421 211.248441,1.80447764 C211.226085,4.1487017 211.248441,6.49931328 211.248441,8.83076227 C211.248441,19.2275343 211.248441,29.6221772 211.248441,40.014691 C211.248441,40.6534441 211.139853,40.8961703 210.430837,40.8770077 C208.399602,40.8227137 206.36198,40.8450701 204.330745,40.8770077 C203.870842,40.8770077 203.669635,40.7875823 203.691991,40.273386 C203.730317,39.5452074 203.714348,38.7946725 203.714348,37.9227744 Z M203.714348,21.0948227 C203.714348,18.6994984 203.714348,16.3041741 203.714348,13.905656 C203.739209,13.565258 203.645552,13.2267401 203.449265,12.9475263 C199.501565,7.56336306 192.343947,5.64351232 186.231674,8.32934105 C180.695701,10.910521 177.466472,16.7773841 178.24726,22.835425 C178.637898,26.837112 180.792306,30.4562841 184.123789,32.707355 C190.451129,36.9162592 198.971941,35.3862325 203.439684,29.2389254 C203.634445,28.9592253 203.725897,28.6205111 203.698379,28.2807956 C203.695185,25.8854713 203.714348,23.4933408 203.714348,21.0948227 Z" id="Path_121"></path>
                    <path d="M93.9190691,27.1725589 C94.9474617,27.1725589 95.979048,27.1725589 97.0074406,27.1725589 C97.3268172,27.1725589 97.5088618,27.2044966 97.5855122,27.6101048 C98.2840798,31.8862384 101.916089,35.0669247 106.247005,35.1952985 C109.03195,35.6534133 111.887375,35.4041128 114.550796,34.4703136 C115.789236,34.0505543 116.865624,33.2544285 117.629586,32.1931587 C118.376734,31.094298 118.5853,29.7159165 118.196699,28.4452028 C117.808098,27.1744891 116.864252,26.1485307 115.630289,25.6555202 C114.086087,25.041602 112.464148,24.6449848 110.810896,24.4770206 C107.078744,24.0112396 103.377179,23.3265942 99.7253353,22.426623 C97.3666136,21.8145188 95.2500903,20.4989324 93.6571804,18.6547857 C90.6525745,14.5778658 90.8808911,8.96154444 94.2065081,5.14196284 C96.3250951,2.86766194 99.1288766,1.34801239 102.190922,0.814410264 C106.624929,-0.231278828 111.271763,0.0916499987 115.518507,1.74060233 C119.728526,3.1645952 122.911666,6.65169584 123.946855,10.9737791 C124.128373,11.8579815 124.252127,12.7530647 124.317331,13.6533485 C124.352463,14.001469 124.237487,14.110057 123.879786,14.110057 C121.820871,14.0930236 119.764086,14.0930236 117.70943,14.110057 C117.003608,14.110057 117.198428,13.5543418 117.150521,13.2285777 C116.87833,10.8778133 115.422842,8.82952646 113.292452,7.79917594 C112.462801,7.38483099 111.57398,7.10148564 110.657595,6.95921555 C107.884044,6.39706253 105.00875,6.618239 102.353804,7.5979687 C101.36348,7.96634139 100.497613,8.60743715 99.8562797,9.44715906 C99.1574694,10.3292225 98.8715851,11.4691376 99.0714383,12.5765807 C99.2712914,13.6840238 99.9375921,14.6521042 100.900641,15.2342626 C102.504033,16.1246967 104.272117,16.678921 106.096898,16.8630831 C109.851311,17.3295164 113.575218,18.0152186 117.249528,18.9166745 C119.933543,19.5795892 122.309542,21.1417968 123.981986,23.3432338 C127.252693,28.4311094 125.929899,35.1929951 120.98304,38.6733094 C118.356822,40.4440485 115.318905,41.5087493 112.161859,41.7648746 C108.363461,42.2380673 104.507991,41.9061682 100.846347,40.790776 C95.1442853,39.1943717 90.9929546,34.2811199 90.3707954,28.3925774 L90.3707954,28.3223146 C90.2462385,27.1725589 90.2462385,27.1725589 91.411963,27.1725589 L93.9190691,27.1725589 Z" id="Path_122"></path>
                    <path d="M29.9511351,37.7694737 C27.7811993,39.4795046 25.2798594,40.7203867 22.6054739,41.4135604 C17.3530814,43.0093445 11.6632622,42.1903288 7.07419112,39.1779243 C3.63138937,36.7621194 1.27280371,33.0929536 0.504614987,28.957874 C0.153137466,27.3338723 -0.0139953423,25.6754006 0.00638753148,24.0139246 C0.00638753148,16.6746509 0.00638753148,9.33644185 0.00638753148,1.99929735 C0.00638753148,1.36054421 0.182044647,1.24237487 0.776085075,1.25514994 C2.78176996,1.29666889 4.79384238,1.29666889 6.79952726,1.25514994 C7.40314899,1.25514994 7.56603104,1.38609433 7.56603104,2.00249112 C7.54048091,9.44077153 7.52131832,16.8790519 7.56603104,24.3141386 C7.44246377,27.2578741 8.51094169,30.1271057 10.5298456,32.2730028 C12.6461933,34.3413891 15.5695495,35.3669025 18.51426,35.0739354 C22.9801432,34.833922 27.1064119,32.6150572 29.7690905,29.0217493 C29.9525723,28.7324616 30.0198839,28.3844949 29.9575226,28.0476507 C29.9575226,19.3882872 29.9575226,10.7278591 29.9575226,2.06636643 C29.9575226,1.45316341 30.0565294,1.23279358 30.7399953,1.25195617 C32.7712303,1.30625019 34.8088528,1.28708759 36.8400878,1.25195617 C37.3510903,1.25195617 37.5522976,1.31902525 37.5522976,1.90987191 C37.5288766,14.6849349 37.5288766,27.4599978 37.5522976,40.2350608 C37.5522976,40.790776 37.4053844,40.928108 36.8592504,40.9185267 C34.7726568,40.886589 32.6903215,40.886589 30.6122446,40.9185267 C30.0788857,40.9185267 29.9415538,40.7620322 29.9734915,40.2574172 C29.979879,39.4877196 29.9511351,38.705247 29.9511351,37.7694737 Z" id="Path_123"></path>
                    <path d="M47.7404103,4.49043463 C49.0795928,3.4310794 50.5476491,2.54573843 52.1094818,1.8555779 C57.3024207,-0.576086147 63.2994255,-0.613428851 68.522244,1.75337739 C73.0969645,3.91723314 76.3478756,8.15388136 77.2539995,13.1327647 C77.6642286,14.9690489 77.8592966,16.8468466 77.8352649,18.7282423 C77.8352649,25.8726963 77.8352649,33.0139565 77.8544275,40.1616042 C77.8544275,40.832295 77.6723828,40.9568519 77.043211,40.9504643 C75.0343323,40.9057516 73.0254537,40.9089454 71.0133812,40.9504643 C70.4225346,40.9504643 70.2979777,40.7843885 70.2979777,40.2222857 C70.3150111,33.1065757 70.3150111,25.9876718 70.2979777,18.8655742 C70.3766516,16.6864502 69.9389053,14.5196062 69.0204714,12.5419181 C67.4379943,9.22848482 64.0687459,7.14204653 60.3973039,7.20194175 C55.5344543,7.05819865 50.9079553,9.298712 48.0054929,13.2030276 C47.7918247,13.4993345 47.6992973,13.8660171 47.7467978,14.2282264 L47.7467978,39.9603969 C47.7467978,40.9185267 47.7467978,40.9185267 46.7663117,40.9185267 C44.8053396,40.9185267 42.8443674,40.9185267 40.886589,40.9185267 C40.4075242,40.9185267 40.2095107,40.8482638 40.2095107,40.2957424 C40.2265441,27.4780958 40.2265441,14.6583202 40.2095107,1.8364153 C40.2095107,1.38290057 40.3244862,1.26473123 40.778001,1.267925 C42.9082427,1.29028136 45.0416782,1.29986266 47.1655325,1.267925 C47.6861163,1.267925 47.7659604,1.44677588 47.7467978,1.90667815 C47.7180539,2.69873205 47.7404103,3.50356102 47.7404103,4.49043463 Z" id="Path_124"></path>
                    <path d="M249.00514,15.8219155 C247.925647,15.8219155 246.849348,15.8027529 245.769855,15.8219155 C245.392991,15.8219155 245.191783,15.7452651 245.111939,15.3620132 C244.070187,10.7609265 240.014513,7.47072291 235.297497,7.39995522 C231.592365,7.02163034 227.903857,8.25795536 225.175166,10.7927884 C222.446475,13.3276215 220.942168,16.9151903 221.046914,20.6381142 C220.780932,24.8331521 222.4508,28.9189733 225.578868,31.7268689 C230.197301,35.6418119 236.892691,35.8950155 241.793617,32.3400719 C243.466652,31.0043549 244.62196,29.1274024 245.060839,27.0320332 C245.172621,26.5210307 245.357859,26.3294048 245.916768,26.3389861 C248.024654,26.3794404 250.132539,26.3794404 252.240424,26.3389861 C252.831271,26.3389861 252.939859,26.5082556 252.856821,27.0416145 C252.384225,30.3535155 250.917512,33.4439708 248.650632,35.9043145 C245.395203,39.4287035 240.901385,41.5554263 236.111907,41.8383312 C231.076224,42.3995719 226.01107,41.0763972 221.893262,38.1239816 C217.417289,34.9721621 214.45779,30.0971477 213.726803,24.6718403 C212.728923,19.224085 213.9152,13.6024619 217.029157,9.02238822 C220.116171,4.39691682 225.036246,1.31489439 230.545174,0.555715239 C235.306864,-0.315014208 240.223093,0.521886825 244.428473,2.91910189 C248.871741,5.4074938 251.954603,9.76832957 252.818496,14.7871354 C252.853627,14.956405 252.818496,15.1352558 252.860015,15.3013317 C252.94944,15.7101337 252.824884,15.8474656 252.384144,15.8346905 C251.256745,15.8027529 250.129345,15.8219155 249.00514,15.8219155 Z" id="Path_125"></path>
                    <path d="M88.1351594,21.104404 C88.1351594,27.4408352 88.1351594,33.7740727 88.154322,40.1105039 C88.154322,40.8035511 87.949921,40.9440768 87.2983928,40.9344955 C85.2671577,40.8897828 83.2359227,40.9025578 81.1983002,40.9344955 C80.709654,40.9344955 80.5978722,40.7971636 80.5978722,40.3212925 C80.6106473,27.503646 80.6106473,14.6859995 80.5978722,1.86835296 C80.5978722,1.36693174 80.7639481,1.2775063 81.2206566,1.28070006 C83.3029918,1.30305642 85.372552,1.31263772 87.4644686,1.28070006 C88.0106025,1.28070006 88.154322,1.40206316 88.154322,1.96097216 C88.1255781,8.33572858 88.1351594,14.7232601 88.1351594,21.104404 Z" id="Path_126"></path>
                    <path d="M287.084409,17.4571235 C287.154672,17.9234133 286.972627,17.9266071 286.6277,17.9266071 C285.209668,17.9266071 283.785249,17.9266071 282.367217,17.9266071 L262.741526,17.9266071" id="Path_127"></path>
                </g>
            </g>
            <path d="M41.4806294,82.9484838 C18.5750381,82.9484838 0.00638753148,64.3798332 0.00638753148,41.4742419 C0.00638753148,18.5686506 18.5750381,0 41.4806294,0 C64.3862208,0 82.9548714,18.5686506 82.9548714,41.4742419 C82.930228,64.3696179 64.3760054,82.9238405 41.4806294,82.9484838 Z M41.4806294,14.3400082 C30.4992384,14.3335485 20.5955541,20.9436078 16.388681,31.0872367 C12.1818079,41.2308657 14.5004474,52.9098964 22.2631799,60.677198 C30.0259125,68.4444995 41.7035769,70.7700107 51.8496794,66.5691069 C61.995782,62.3682031 68.6116675,52.4684099 68.6116694,41.487017 C68.6011137,26.5047458 56.4628918,14.3593796 41.4806294,14.3400082 Z" id="Path_128" fill="url(#linearGradient-1)"></path>
        </g>
    </g>
</svg>